<mxfile host="app.diagrams.net" agent="Mozilla/5.0 (Windows NT 10.0; Win64; x64) AppleWebKit/537.36 (KHTML, like Gecko) Chrome/131.0.0.0 Safari/537.36" version="25.0.3">
  <diagram name="Страница — 1" id="B7r4_L_ZDrQJOu4fwcXL">
    <mxGraphModel dx="2193" dy="710" grid="1" gridSize="10" guides="1" tooltips="1" connect="1" arrows="1" fold="1" page="1" pageScale="1" pageWidth="827" pageHeight="1169" math="0" shadow="0">
      <root>
        <mxCell id="0" />
        <mxCell id="1" parent="0" />
        <mxCell id="TRrzErzz80BEs_K_XsTW-1" value="ManufacturingManager" style="swimlane;fontStyle=0;childLayout=stackLayout;horizontal=1;startSize=30;horizontalStack=0;resizeParent=1;resizeParentMax=0;resizeLast=0;collapsible=1;marginBottom=0;whiteSpace=wrap;html=1;" parent="1" vertex="1">
          <mxGeometry x="-310" y="20" width="170" height="120" as="geometry" />
        </mxCell>
        <mxCell id="TRrzErzz80BEs_K_XsTW-2" value="monitorProduction()" style="text;strokeColor=none;fillColor=none;align=left;verticalAlign=middle;spacingLeft=4;spacingRight=4;overflow=hidden;points=[[0,0.5],[1,0.5]];portConstraint=eastwest;rotatable=0;whiteSpace=wrap;html=1;" parent="TRrzErzz80BEs_K_XsTW-1" vertex="1">
          <mxGeometry y="30" width="170" height="30" as="geometry" />
        </mxCell>
        <mxCell id="TRrzErzz80BEs_K_XsTW-3" value="analyzeProductionMetrics()" style="text;strokeColor=none;fillColor=none;align=left;verticalAlign=middle;spacingLeft=4;spacingRight=4;overflow=hidden;points=[[0,0.5],[1,0.5]];portConstraint=eastwest;rotatable=0;whiteSpace=wrap;html=1;" parent="TRrzErzz80BEs_K_XsTW-1" vertex="1">
          <mxGeometry y="60" width="170" height="30" as="geometry" />
        </mxCell>
        <mxCell id="TRrzErzz80BEs_K_XsTW-4" value="optimizeProduction()" style="text;strokeColor=none;fillColor=none;align=left;verticalAlign=middle;spacingLeft=4;spacingRight=4;overflow=hidden;points=[[0,0.5],[1,0.5]];portConstraint=eastwest;rotatable=0;whiteSpace=wrap;html=1;" parent="TRrzErzz80BEs_K_XsTW-1" vertex="1">
          <mxGeometry y="90" width="170" height="30" as="geometry" />
        </mxCell>
        <mxCell id="TRrzErzz80BEs_K_XsTW-71" style="edgeStyle=orthogonalEdgeStyle;rounded=0;orthogonalLoop=1;jettySize=auto;html=1;entryX=1;entryY=0.5;entryDx=0;entryDy=0;endArrow=none;endFill=0;" parent="1" source="TRrzErzz80BEs_K_XsTW-5" target="TRrzErzz80BEs_K_XsTW-33" edge="1">
          <mxGeometry relative="1" as="geometry" />
        </mxCell>
        <mxCell id="TRrzErzz80BEs_K_XsTW-5" value="LogisticsManager" style="swimlane;fontStyle=0;childLayout=stackLayout;horizontal=1;startSize=30;horizontalStack=0;resizeParent=1;resizeParentMax=0;resizeLast=0;collapsible=1;marginBottom=0;whiteSpace=wrap;html=1;" parent="1" vertex="1">
          <mxGeometry x="350" y="175" width="190" height="120" as="geometry" />
        </mxCell>
        <mxCell id="TRrzErzz80BEs_K_XsTW-6" value="manageDeliveries()" style="text;strokeColor=none;fillColor=none;align=left;verticalAlign=middle;spacingLeft=4;spacingRight=4;overflow=hidden;points=[[0,0.5],[1,0.5]];portConstraint=eastwest;rotatable=0;whiteSpace=wrap;html=1;" parent="TRrzErzz80BEs_K_XsTW-5" vertex="1">
          <mxGeometry y="30" width="190" height="30" as="geometry" />
        </mxCell>
        <mxCell id="TRrzErzz80BEs_K_XsTW-7" value="optimizeSupplyChain()" style="text;strokeColor=none;fillColor=none;align=left;verticalAlign=middle;spacingLeft=4;spacingRight=4;overflow=hidden;points=[[0,0.5],[1,0.5]];portConstraint=eastwest;rotatable=0;whiteSpace=wrap;html=1;" parent="TRrzErzz80BEs_K_XsTW-5" vertex="1">
          <mxGeometry y="60" width="190" height="30" as="geometry" />
        </mxCell>
        <mxCell id="TRrzErzz80BEs_K_XsTW-8" value="integrateSupplyChainSystems()" style="text;strokeColor=none;fillColor=none;align=left;verticalAlign=middle;spacingLeft=4;spacingRight=4;overflow=hidden;points=[[0,0.5],[1,0.5]];portConstraint=eastwest;rotatable=0;whiteSpace=wrap;html=1;" parent="TRrzErzz80BEs_K_XsTW-5" vertex="1">
          <mxGeometry y="90" width="190" height="30" as="geometry" />
        </mxCell>
        <mxCell id="TRrzErzz80BEs_K_XsTW-69" style="edgeStyle=orthogonalEdgeStyle;rounded=0;orthogonalLoop=1;jettySize=auto;html=1;entryX=0.5;entryY=0;entryDx=0;entryDy=0;endArrow=none;endFill=0;" parent="1" source="TRrzErzz80BEs_K_XsTW-9" target="TRrzErzz80BEs_K_XsTW-41" edge="1">
          <mxGeometry relative="1" as="geometry" />
        </mxCell>
        <mxCell id="TRrzErzz80BEs_K_XsTW-70" style="edgeStyle=orthogonalEdgeStyle;rounded=0;orthogonalLoop=1;jettySize=auto;html=1;entryX=0.25;entryY=0;entryDx=0;entryDy=0;exitX=0.51;exitY=1;exitDx=0;exitDy=0;exitPerimeter=0;endArrow=none;endFill=0;" parent="1" source="TRrzErzz80BEs_K_XsTW-11" target="TRrzErzz80BEs_K_XsTW-45" edge="1">
          <mxGeometry relative="1" as="geometry" />
        </mxCell>
        <mxCell id="TRrzErzz80BEs_K_XsTW-9" value="ITAdministrator" style="swimlane;fontStyle=0;childLayout=stackLayout;horizontal=1;startSize=30;horizontalStack=0;resizeParent=1;resizeParentMax=0;resizeLast=0;collapsible=1;marginBottom=0;whiteSpace=wrap;html=1;" parent="1" vertex="1">
          <mxGeometry x="40" y="410" width="210" height="90" as="geometry" />
        </mxCell>
        <mxCell id="TRrzErzz80BEs_K_XsTW-10" value="manageSystemIntegrations()" style="text;strokeColor=none;fillColor=none;align=left;verticalAlign=middle;spacingLeft=4;spacingRight=4;overflow=hidden;points=[[0,0.5],[1,0.5]];portConstraint=eastwest;rotatable=0;whiteSpace=wrap;html=1;" parent="TRrzErzz80BEs_K_XsTW-9" vertex="1">
          <mxGeometry y="30" width="210" height="30" as="geometry" />
        </mxCell>
        <mxCell id="TRrzErzz80BEs_K_XsTW-11" value="setupIoTDevices()" style="text;strokeColor=none;fillColor=none;align=left;verticalAlign=middle;spacingLeft=4;spacingRight=4;overflow=hidden;points=[[0,0.5],[1,0.5]];portConstraint=eastwest;rotatable=0;whiteSpace=wrap;html=1;" parent="TRrzErzz80BEs_K_XsTW-9" vertex="1">
          <mxGeometry y="60" width="210" height="30" as="geometry" />
        </mxCell>
        <mxCell id="TRrzErzz80BEs_K_XsTW-79" style="edgeStyle=orthogonalEdgeStyle;rounded=0;orthogonalLoop=1;jettySize=auto;html=1;entryX=0;entryY=0.5;entryDx=0;entryDy=0;" parent="1" source="TRrzErzz80BEs_K_XsTW-13" target="TRrzErzz80BEs_K_XsTW-75" edge="1">
          <mxGeometry relative="1" as="geometry" />
        </mxCell>
        <mxCell id="TRrzErzz80BEs_K_XsTW-13" value="SalesAndMarketingTeam" style="swimlane;fontStyle=0;childLayout=stackLayout;horizontal=1;startSize=30;horizontalStack=0;resizeParent=1;resizeParentMax=0;resizeLast=0;collapsible=1;marginBottom=0;whiteSpace=wrap;html=1;" parent="1" vertex="1">
          <mxGeometry x="-370" y="385" width="190" height="120" as="geometry" />
        </mxCell>
        <mxCell id="TRrzErzz80BEs_K_XsTW-14" value="trackSalesPerformance()" style="text;strokeColor=none;fillColor=none;align=left;verticalAlign=middle;spacingLeft=4;spacingRight=4;overflow=hidden;points=[[0,0.5],[1,0.5]];portConstraint=eastwest;rotatable=0;whiteSpace=wrap;html=1;" parent="TRrzErzz80BEs_K_XsTW-13" vertex="1">
          <mxGeometry y="30" width="190" height="30" as="geometry" />
        </mxCell>
        <mxCell id="TRrzErzz80BEs_K_XsTW-15" value="adjustStrategies()" style="text;strokeColor=none;fillColor=none;align=left;verticalAlign=middle;spacingLeft=4;spacingRight=4;overflow=hidden;points=[[0,0.5],[1,0.5]];portConstraint=eastwest;rotatable=0;whiteSpace=wrap;html=1;" parent="TRrzErzz80BEs_K_XsTW-13" vertex="1">
          <mxGeometry y="60" width="190" height="30" as="geometry" />
        </mxCell>
        <mxCell id="TRrzErzz80BEs_K_XsTW-16" value="manageCustomerRelations()" style="text;strokeColor=none;fillColor=none;align=left;verticalAlign=middle;spacingLeft=4;spacingRight=4;overflow=hidden;points=[[0,0.5],[1,0.5]];portConstraint=eastwest;rotatable=0;whiteSpace=wrap;html=1;" parent="TRrzErzz80BEs_K_XsTW-13" vertex="1">
          <mxGeometry y="90" width="190" height="30" as="geometry" />
        </mxCell>
        <mxCell id="TRrzErzz80BEs_K_XsTW-17" value="CustomerService" style="swimlane;fontStyle=0;childLayout=stackLayout;horizontal=1;startSize=30;horizontalStack=0;resizeParent=1;resizeParentMax=0;resizeLast=0;collapsible=1;marginBottom=0;whiteSpace=wrap;html=1;" parent="1" vertex="1">
          <mxGeometry x="-530" y="585" width="160" height="90" as="geometry" />
        </mxCell>
        <mxCell id="TRrzErzz80BEs_K_XsTW-18" value="logCustomerFeedback()" style="text;strokeColor=none;fillColor=none;align=left;verticalAlign=middle;spacingLeft=4;spacingRight=4;overflow=hidden;points=[[0,0.5],[1,0.5]];portConstraint=eastwest;rotatable=0;whiteSpace=wrap;html=1;" parent="TRrzErzz80BEs_K_XsTW-17" vertex="1">
          <mxGeometry y="30" width="160" height="30" as="geometry" />
        </mxCell>
        <mxCell id="TRrzErzz80BEs_K_XsTW-19" value="improveServiceQuality()" style="text;strokeColor=none;fillColor=none;align=left;verticalAlign=middle;spacingLeft=4;spacingRight=4;overflow=hidden;points=[[0,0.5],[1,0.5]];portConstraint=eastwest;rotatable=0;whiteSpace=wrap;html=1;" parent="TRrzErzz80BEs_K_XsTW-17" vertex="1">
          <mxGeometry y="60" width="160" height="30" as="geometry" />
        </mxCell>
        <mxCell id="TRrzErzz80BEs_K_XsTW-85" style="edgeStyle=orthogonalEdgeStyle;rounded=0;orthogonalLoop=1;jettySize=auto;html=1;entryX=0;entryY=0.5;entryDx=0;entryDy=0;endArrow=none;endFill=0;" parent="1" source="TRrzErzz80BEs_K_XsTW-21" target="TRrzErzz80BEs_K_XsTW-29" edge="1">
          <mxGeometry relative="1" as="geometry" />
        </mxCell>
        <mxCell id="TRrzErzz80BEs_K_XsTW-96" value="for design improvements" style="edgeLabel;html=1;align=center;verticalAlign=middle;resizable=0;points=[];" parent="TRrzErzz80BEs_K_XsTW-85" vertex="1" connectable="0">
          <mxGeometry x="0.18" y="-1" relative="1" as="geometry">
            <mxPoint as="offset" />
          </mxGeometry>
        </mxCell>
        <mxCell id="TRrzErzz80BEs_K_XsTW-86" style="edgeStyle=orthogonalEdgeStyle;rounded=0;orthogonalLoop=1;jettySize=auto;html=1;entryX=0.25;entryY=0;entryDx=0;entryDy=0;endArrow=none;endFill=0;" parent="1" source="TRrzErzz80BEs_K_XsTW-21" target="TRrzErzz80BEs_K_XsTW-81" edge="1">
          <mxGeometry relative="1" as="geometry" />
        </mxCell>
        <mxCell id="TRrzErzz80BEs_K_XsTW-95" value="for design improvements" style="edgeLabel;html=1;align=center;verticalAlign=middle;resizable=0;points=[];" parent="TRrzErzz80BEs_K_XsTW-86" vertex="1" connectable="0">
          <mxGeometry x="0.5571" relative="1" as="geometry">
            <mxPoint as="offset" />
          </mxGeometry>
        </mxCell>
        <mxCell id="TRrzErzz80BEs_K_XsTW-21" value="R&amp;amp;DTeam" style="swimlane;fontStyle=0;childLayout=stackLayout;horizontal=1;startSize=30;horizontalStack=0;resizeParent=1;resizeParentMax=0;resizeLast=0;collapsible=1;marginBottom=0;whiteSpace=wrap;html=1;" parent="1" vertex="1">
          <mxGeometry x="-400" y="175" width="160" height="90" as="geometry" />
        </mxCell>
        <mxCell id="TRrzErzz80BEs_K_XsTW-22" value="analyzeEfficiencyData()" style="text;strokeColor=none;fillColor=none;align=left;verticalAlign=middle;spacingLeft=4;spacingRight=4;overflow=hidden;points=[[0,0.5],[1,0.5]];portConstraint=eastwest;rotatable=0;whiteSpace=wrap;html=1;" parent="TRrzErzz80BEs_K_XsTW-21" vertex="1">
          <mxGeometry y="30" width="160" height="30" as="geometry" />
        </mxCell>
        <mxCell id="TRrzErzz80BEs_K_XsTW-23" value="developNewTechniques()" style="text;strokeColor=none;fillColor=none;align=left;verticalAlign=middle;spacingLeft=4;spacingRight=4;overflow=hidden;points=[[0,0.5],[1,0.5]];portConstraint=eastwest;rotatable=0;whiteSpace=wrap;html=1;" parent="TRrzErzz80BEs_K_XsTW-21" vertex="1">
          <mxGeometry y="60" width="160" height="30" as="geometry" />
        </mxCell>
        <mxCell id="TRrzErzz80BEs_K_XsTW-25" value="IoTSystem" style="swimlane;fontStyle=0;childLayout=stackLayout;horizontal=1;startSize=30;horizontalStack=0;resizeParent=1;resizeParentMax=0;resizeLast=0;collapsible=1;marginBottom=0;whiteSpace=wrap;html=1;" parent="1" vertex="1">
          <mxGeometry x="170" y="10" width="140" height="90" as="geometry" />
        </mxCell>
        <mxCell id="TRrzErzz80BEs_K_XsTW-26" value="collectSensorData()" style="text;strokeColor=none;fillColor=none;align=left;verticalAlign=middle;spacingLeft=4;spacingRight=4;overflow=hidden;points=[[0,0.5],[1,0.5]];portConstraint=eastwest;rotatable=0;whiteSpace=wrap;html=1;" parent="TRrzErzz80BEs_K_XsTW-25" vertex="1">
          <mxGeometry y="30" width="140" height="30" as="geometry" />
        </mxCell>
        <mxCell id="TRrzErzz80BEs_K_XsTW-27" value="detectIssues()" style="text;strokeColor=none;fillColor=none;align=left;verticalAlign=middle;spacingLeft=4;spacingRight=4;overflow=hidden;points=[[0,0.5],[1,0.5]];portConstraint=eastwest;rotatable=0;whiteSpace=wrap;html=1;" parent="TRrzErzz80BEs_K_XsTW-25" vertex="1">
          <mxGeometry y="60" width="140" height="30" as="geometry" />
        </mxCell>
        <mxCell id="TRrzErzz80BEs_K_XsTW-29" value="ProductionData" style="swimlane;fontStyle=0;childLayout=stackLayout;horizontal=1;startSize=30;horizontalStack=0;resizeParent=1;resizeParentMax=0;resizeLast=0;collapsible=1;marginBottom=0;whiteSpace=wrap;html=1;" parent="1" vertex="1">
          <mxGeometry x="-100" y="145" width="140" height="30" as="geometry" />
        </mxCell>
        <mxCell id="TRrzErzz80BEs_K_XsTW-33" value="LogisticsData" style="swimlane;fontStyle=0;childLayout=stackLayout;horizontal=1;startSize=30;horizontalStack=0;resizeParent=1;resizeParentMax=0;resizeLast=0;collapsible=1;marginBottom=0;whiteSpace=wrap;html=1;" parent="1" vertex="1">
          <mxGeometry x="375" y="330" width="140" height="30" as="geometry" />
        </mxCell>
        <mxCell id="TRrzErzz80BEs_K_XsTW-37" value="ERPSystem" style="swimlane;fontStyle=0;childLayout=stackLayout;horizontal=1;startSize=30;horizontalStack=0;resizeParent=1;resizeParentMax=0;resizeLast=0;collapsible=1;marginBottom=0;whiteSpace=wrap;html=1;" parent="1" vertex="1">
          <mxGeometry x="-70" y="570" width="140" height="90" as="geometry" />
        </mxCell>
        <mxCell id="TRrzErzz80BEs_K_XsTW-38" value="integrateData()" style="text;strokeColor=none;fillColor=none;align=left;verticalAlign=middle;spacingLeft=4;spacingRight=4;overflow=hidden;points=[[0,0.5],[1,0.5]];portConstraint=eastwest;rotatable=0;whiteSpace=wrap;html=1;" parent="TRrzErzz80BEs_K_XsTW-37" vertex="1">
          <mxGeometry y="30" width="140" height="30" as="geometry" />
        </mxCell>
        <mxCell id="TRrzErzz80BEs_K_XsTW-39" value="manageInventory()" style="text;strokeColor=none;fillColor=none;align=left;verticalAlign=middle;spacingLeft=4;spacingRight=4;overflow=hidden;points=[[0,0.5],[1,0.5]];portConstraint=eastwest;rotatable=0;whiteSpace=wrap;html=1;" parent="TRrzErzz80BEs_K_XsTW-37" vertex="1">
          <mxGeometry y="60" width="140" height="30" as="geometry" />
        </mxCell>
        <mxCell id="TRrzErzz80BEs_K_XsTW-41" value="CRMSystem" style="swimlane;fontStyle=0;childLayout=stackLayout;horizontal=1;startSize=30;horizontalStack=0;resizeParent=1;resizeParentMax=0;resizeLast=0;collapsible=1;marginBottom=0;whiteSpace=wrap;html=1;" parent="1" vertex="1">
          <mxGeometry x="90" y="570" width="140" height="90" as="geometry" />
        </mxCell>
        <mxCell id="TRrzErzz80BEs_K_XsTW-42" value="storeCustomerInteractions()" style="text;strokeColor=none;fillColor=none;align=left;verticalAlign=middle;spacingLeft=4;spacingRight=4;overflow=hidden;points=[[0,0.5],[1,0.5]];portConstraint=eastwest;rotatable=0;whiteSpace=wrap;html=1;" parent="TRrzErzz80BEs_K_XsTW-41" vertex="1">
          <mxGeometry y="30" width="140" height="30" as="geometry" />
        </mxCell>
        <mxCell id="TRrzErzz80BEs_K_XsTW-43" value="logFeedback()" style="text;strokeColor=none;fillColor=none;align=left;verticalAlign=middle;spacingLeft=4;spacingRight=4;overflow=hidden;points=[[0,0.5],[1,0.5]];portConstraint=eastwest;rotatable=0;whiteSpace=wrap;html=1;" parent="TRrzErzz80BEs_K_XsTW-41" vertex="1">
          <mxGeometry y="60" width="140" height="30" as="geometry" />
        </mxCell>
        <mxCell id="TRrzErzz80BEs_K_XsTW-45" value="SCMSystem" style="swimlane;fontStyle=0;childLayout=stackLayout;horizontal=1;startSize=30;horizontalStack=0;resizeParent=1;resizeParentMax=0;resizeLast=0;collapsible=1;marginBottom=0;whiteSpace=wrap;html=1;" parent="1" vertex="1">
          <mxGeometry x="274" y="570" width="140" height="90" as="geometry" />
        </mxCell>
        <mxCell id="TRrzErzz80BEs_K_XsTW-46" value="optimizeSupplyChain()" style="text;strokeColor=none;fillColor=none;align=left;verticalAlign=middle;spacingLeft=4;spacingRight=4;overflow=hidden;points=[[0,0.5],[1,0.5]];portConstraint=eastwest;rotatable=0;whiteSpace=wrap;html=1;" parent="TRrzErzz80BEs_K_XsTW-45" vertex="1">
          <mxGeometry y="30" width="140" height="30" as="geometry" />
        </mxCell>
        <mxCell id="TRrzErzz80BEs_K_XsTW-47" value="trackInventory()" style="text;strokeColor=none;fillColor=none;align=left;verticalAlign=middle;spacingLeft=4;spacingRight=4;overflow=hidden;points=[[0,0.5],[1,0.5]];portConstraint=eastwest;rotatable=0;whiteSpace=wrap;html=1;" parent="TRrzErzz80BEs_K_XsTW-45" vertex="1">
          <mxGeometry y="60" width="140" height="30" as="geometry" />
        </mxCell>
        <mxCell id="TRrzErzz80BEs_K_XsTW-65" style="edgeStyle=orthogonalEdgeStyle;rounded=0;orthogonalLoop=1;jettySize=auto;html=1;endArrow=none;endFill=0;" parent="1" source="TRrzErzz80BEs_K_XsTW-29" target="TRrzErzz80BEs_K_XsTW-3" edge="1">
          <mxGeometry relative="1" as="geometry" />
        </mxCell>
        <mxCell id="TRrzErzz80BEs_K_XsTW-66" style="edgeStyle=orthogonalEdgeStyle;rounded=0;orthogonalLoop=1;jettySize=auto;html=1;endArrow=none;endFill=0;exitX=0.459;exitY=0.067;exitDx=0;exitDy=0;exitPerimeter=0;" parent="1" source="TRrzErzz80BEs_K_XsTW-2" target="TRrzErzz80BEs_K_XsTW-26" edge="1">
          <mxGeometry relative="1" as="geometry">
            <Array as="points">
              <mxPoint x="-225" y="52" />
              <mxPoint x="-225" y="50" />
            </Array>
          </mxGeometry>
        </mxCell>
        <mxCell id="TRrzErzz80BEs_K_XsTW-87" value="Provide Data" style="edgeLabel;html=1;align=center;verticalAlign=middle;resizable=0;points=[];" parent="TRrzErzz80BEs_K_XsTW-66" vertex="1" connectable="0">
          <mxGeometry x="0.1831" y="1" relative="1" as="geometry">
            <mxPoint x="95" y="-9" as="offset" />
          </mxGeometry>
        </mxCell>
        <mxCell id="TRrzErzz80BEs_K_XsTW-90" value="monitoring production data" style="edgeLabel;html=1;align=center;verticalAlign=middle;resizable=0;points=[];" parent="TRrzErzz80BEs_K_XsTW-66" vertex="1" connectable="0">
          <mxGeometry x="-0.1585" y="2" relative="1" as="geometry">
            <mxPoint x="-6" y="12" as="offset" />
          </mxGeometry>
        </mxCell>
        <mxCell id="TRrzErzz80BEs_K_XsTW-67" style="edgeStyle=orthogonalEdgeStyle;rounded=0;orthogonalLoop=1;jettySize=auto;html=1;entryX=0;entryY=0.5;entryDx=0;entryDy=0;" parent="1" source="TRrzErzz80BEs_K_XsTW-3" target="TRrzErzz80BEs_K_XsTW-7" edge="1">
          <mxGeometry relative="1" as="geometry">
            <Array as="points">
              <mxPoint x="105" y="95" />
              <mxPoint x="105" y="250" />
            </Array>
          </mxGeometry>
        </mxCell>
        <mxCell id="TRrzErzz80BEs_K_XsTW-91" value="for aligned delivery schedules" style="edgeLabel;html=1;align=center;verticalAlign=middle;resizable=0;points=[];" parent="TRrzErzz80BEs_K_XsTW-67" vertex="1" connectable="0">
          <mxGeometry x="0.4884" y="-2" relative="1" as="geometry">
            <mxPoint x="-35" y="-2" as="offset" />
          </mxGeometry>
        </mxCell>
        <mxCell id="TRrzErzz80BEs_K_XsTW-68" style="edgeStyle=orthogonalEdgeStyle;rounded=0;orthogonalLoop=1;jettySize=auto;html=1;entryX=0.45;entryY=-0.033;entryDx=0;entryDy=0;entryPerimeter=0;endArrow=none;endFill=0;" parent="1" source="TRrzErzz80BEs_K_XsTW-9" target="TRrzErzz80BEs_K_XsTW-37" edge="1">
          <mxGeometry relative="1" as="geometry" />
        </mxCell>
        <mxCell id="TRrzErzz80BEs_K_XsTW-92" value="data management" style="edgeLabel;html=1;align=center;verticalAlign=middle;resizable=0;points=[];" parent="TRrzErzz80BEs_K_XsTW-68" vertex="1" connectable="0">
          <mxGeometry x="-0.8865" y="1" relative="1" as="geometry">
            <mxPoint as="offset" />
          </mxGeometry>
        </mxCell>
        <mxCell id="TRrzErzz80BEs_K_XsTW-72" style="edgeStyle=orthogonalEdgeStyle;rounded=0;orthogonalLoop=1;jettySize=auto;html=1;entryX=0.521;entryY=1.033;entryDx=0;entryDy=0;entryPerimeter=0;endArrow=none;endFill=0;" parent="1" source="TRrzErzz80BEs_K_XsTW-9" target="TRrzErzz80BEs_K_XsTW-27" edge="1">
          <mxGeometry relative="1" as="geometry">
            <Array as="points">
              <mxPoint x="145" y="390" />
              <mxPoint x="243" y="390" />
            </Array>
          </mxGeometry>
        </mxCell>
        <mxCell id="TRrzErzz80BEs_K_XsTW-73" style="edgeStyle=orthogonalEdgeStyle;rounded=0;orthogonalLoop=1;jettySize=auto;html=1;endArrow=none;endFill=0;exitX=0;exitY=0.5;exitDx=0;exitDy=0;entryX=0.5;entryY=0;entryDx=0;entryDy=0;" parent="1" source="TRrzErzz80BEs_K_XsTW-15" target="TRrzErzz80BEs_K_XsTW-17" edge="1">
          <mxGeometry relative="1" as="geometry">
            <mxPoint x="-460" y="620" as="targetPoint" />
            <Array as="points">
              <mxPoint x="-370" y="490" />
              <mxPoint x="-460" y="490" />
            </Array>
          </mxGeometry>
        </mxCell>
        <mxCell id="TRrzErzz80BEs_K_XsTW-93" value="customer satisfaction insights" style="edgeLabel;html=1;align=center;verticalAlign=middle;resizable=0;points=[];" parent="TRrzErzz80BEs_K_XsTW-73" vertex="1" connectable="0">
          <mxGeometry x="0.6429" y="2" relative="1" as="geometry">
            <mxPoint as="offset" />
          </mxGeometry>
        </mxCell>
        <mxCell id="TRrzErzz80BEs_K_XsTW-74" style="edgeStyle=orthogonalEdgeStyle;rounded=0;orthogonalLoop=1;jettySize=auto;html=1;entryX=0.543;entryY=1.133;entryDx=0;entryDy=0;entryPerimeter=0;" parent="1" source="TRrzErzz80BEs_K_XsTW-13" target="TRrzErzz80BEs_K_XsTW-43" edge="1">
          <mxGeometry relative="1" as="geometry">
            <Array as="points">
              <mxPoint x="-275" y="710" />
              <mxPoint x="156" y="710" />
              <mxPoint x="156" y="664" />
            </Array>
          </mxGeometry>
        </mxCell>
        <mxCell id="TRrzErzz80BEs_K_XsTW-94" value="for strategic planning." style="edgeLabel;html=1;align=center;verticalAlign=middle;resizable=0;points=[];" parent="TRrzErzz80BEs_K_XsTW-74" vertex="1" connectable="0">
          <mxGeometry x="-0.9681" y="-1" relative="1" as="geometry">
            <mxPoint y="38" as="offset" />
          </mxGeometry>
        </mxCell>
        <mxCell id="TRrzErzz80BEs_K_XsTW-75" value="Sales Data" style="swimlane;fontStyle=0;childLayout=stackLayout;horizontal=1;startSize=30;horizontalStack=0;resizeParent=1;resizeParentMax=0;resizeLast=0;collapsible=1;marginBottom=0;whiteSpace=wrap;html=1;" parent="1" vertex="1">
          <mxGeometry x="-250" y="570" width="140" height="30" as="geometry" />
        </mxCell>
        <mxCell id="TRrzErzz80BEs_K_XsTW-80" style="edgeStyle=orthogonalEdgeStyle;rounded=0;orthogonalLoop=1;jettySize=auto;html=1;entryX=0.3;entryY=1.067;entryDx=0;entryDy=0;entryPerimeter=0;" parent="1" source="TRrzErzz80BEs_K_XsTW-17" target="TRrzErzz80BEs_K_XsTW-43" edge="1">
          <mxGeometry relative="1" as="geometry">
            <Array as="points">
              <mxPoint x="-460" y="740" />
              <mxPoint x="122" y="740" />
              <mxPoint x="122" y="662" />
            </Array>
          </mxGeometry>
        </mxCell>
        <mxCell id="TRrzErzz80BEs_K_XsTW-97" value="for managing feedback" style="edgeLabel;html=1;align=center;verticalAlign=middle;resizable=0;points=[];" parent="TRrzErzz80BEs_K_XsTW-80" vertex="1" connectable="0">
          <mxGeometry x="-0.2657" y="-1" relative="1" as="geometry">
            <mxPoint as="offset" />
          </mxGeometry>
        </mxCell>
        <mxCell id="TRrzErzz80BEs_K_XsTW-81" value="CustomerFeedback" style="swimlane;fontStyle=0;childLayout=stackLayout;horizontal=1;startSize=30;horizontalStack=0;resizeParent=1;resizeParentMax=0;resizeLast=0;collapsible=1;marginBottom=0;whiteSpace=wrap;html=1;" parent="1" vertex="1">
          <mxGeometry x="-180" y="265" width="140" height="30" as="geometry" />
        </mxCell>
        <mxCell id="TRrzErzz80BEs_K_XsTW-88" style="edgeStyle=orthogonalEdgeStyle;rounded=0;orthogonalLoop=1;jettySize=auto;html=1;entryX=0.236;entryY=1.033;entryDx=0;entryDy=0;entryPerimeter=0;endArrow=none;endFill=0;" parent="1" source="TRrzErzz80BEs_K_XsTW-22" target="TRrzErzz80BEs_K_XsTW-27" edge="1">
          <mxGeometry relative="1" as="geometry" />
        </mxCell>
        <mxCell id="TRrzErzz80BEs_K_XsTW-89" value="Provide Data" style="edgeLabel;html=1;align=center;verticalAlign=middle;resizable=0;points=[];" parent="TRrzErzz80BEs_K_XsTW-88" vertex="1" connectable="0">
          <mxGeometry x="0.3736" y="4" relative="1" as="geometry">
            <mxPoint as="offset" />
          </mxGeometry>
        </mxCell>
      </root>
    </mxGraphModel>
  </diagram>
</mxfile>
